<?xml version="1.0" encoding="UTF-8"?>
<!DOCTYPE svg PUBLIC "-//W3C//DTD SVG 1.1//EN" "http://www.w3.org/Graphics/SVG/1.1/DTD/svg11.dtd">
<svg xmlns="http://www.w3.org/2000/svg" version="1.1" width="4114px" height="1383px" style="shape-rendering:geometricPrecision; text-rendering:geometricPrecision; image-rendering:optimizeQuality; fill-rule:evenodd; clip-rule:evenodd" xmlns:xlink="http://www.w3.org/1999/xlink">
<g><path style="opacity:0.991" fill="#1c1d1a" d="M 1166.5,38.5 C 1211.44,35.9602 1255.44,41.1269 1298.5,54C 1344.91,70.4091 1382.08,98.9091 1410,139.5C 1434.62,176.418 1451.28,216.751 1460,260.5C 1460.5,191.501 1460.67,122.501 1460.5,53.5C 1508.83,53.5 1557.17,53.5 1605.5,53.5C 1605.5,300.833 1605.5,548.167 1605.5,795.5C 1560.83,795.5 1516.17,795.5 1471.5,795.5C 1467.19,754.241 1463.69,712.908 1461,671.5C 1460.67,635.167 1460.33,598.833 1460,562.5C 1446.96,617.564 1423.96,667.897 1391,713.5C 1341.59,775.288 1277.09,807.455 1197.5,810C 1060.45,813.118 956.284,756.618 885,640.5C 852.472,584.24 834.472,523.573 831,458.5C 825.778,388.713 836.112,321.379 862,256.5C 898.29,172.544 957.456,110.377 1039.5,70C 1080.04,51.7819 1122.37,41.2819 1166.5,38.5 Z M 1193.5,164.5 C 1238.67,161.27 1282.34,167.77 1324.5,184C 1386.03,212.537 1426.53,259.371 1446,324.5C 1463.78,388.071 1464.45,451.737 1448,515.5C 1416.57,619.248 1346.74,675.415 1238.5,684C 1169.64,689.487 1108.97,670.153 1056.5,626C 1006.86,577.875 980.031,519.042 976,449.5C 971.064,389.181 982.397,332.181 1010,278.5C 1050.92,208.433 1112.08,170.433 1193.5,164.5 Z"/></g>
<g><path style="opacity:0.991" fill="#1c1d1a" d="M 2025.5,38.5 C 2065.34,36.5595 2104.67,40.0595 2143.5,49C 2234.98,74.4799 2290.81,133.647 2311,226.5C 2314.67,245.325 2316.5,264.325 2316.5,283.5C 2274.17,283.5 2231.83,283.5 2189.5,283.5C 2185.86,255.066 2176.03,229.066 2160,205.5C 2141.15,183.653 2117.32,170.486 2088.5,166C 2055.98,160.777 2023.64,161.777 1991.5,169C 1968.2,174.227 1948.7,185.727 1933,203.5C 1913.27,230.966 1910.61,259.966 1925,290.5C 1935.72,304.551 1948.88,315.718 1964.5,324C 1980.03,332.1 1996.03,339.1 2012.5,345C 2055.84,359.67 2099.18,374.337 2142.5,389C 2168.22,397.685 2193.56,407.352 2218.5,418C 2323.74,464.988 2362.24,544.822 2334,657.5C 2320.07,704.079 2292.57,740.246 2251.5,766C 2203.7,793.93 2152.03,808.93 2096.5,811C 2047.37,814.253 1998.71,810.586 1950.5,800C 1881.98,783.853 1826.48,748.019 1784,692.5C 1760.16,659.666 1746.16,623 1742,582.5C 1741.25,572.799 1741.41,563.132 1742.5,553.5C 1786.83,553.5 1831.17,553.5 1875.5,553.5C 1886.9,618.404 1924.23,660.238 1987.5,679C 2027.5,688.311 2067.83,689.978 2108.5,684C 2179.56,670.711 2207.06,628.877 2191,558.5C 2182.89,541.389 2170.39,528.556 2153.5,520C 2132.93,510.032 2111.6,502.032 2089.5,496C 2029.44,481.203 1970.78,462.203 1913.5,439C 1886.56,426.873 1861.23,412.206 1837.5,395C 1778.85,345.376 1758.35,282.876 1776,207.5C 1789.12,158.417 1816.62,119.583 1858.5,91C 1909.51,58.7189 1965.18,41.2189 2025.5,38.5 Z"/></g>
<g><path style="opacity:0.992" fill="#1c1d1a" d="M 2808.5,38.5 C 2869.66,35.2766 2929.33,43.11 2987.5,62C 3069,91.833 3126.83,146.666 3161,226.5C 3185,287.51 3196.17,350.843 3194.5,416.5C 3194.37,430.509 3194.03,444.509 3193.5,458.5C 2989.83,458.333 2786.17,458.5 2582.5,459C 2589.08,516.295 2611.24,566.462 2649,609.5C 2701.91,661.929 2765.91,687.596 2841,686.5C 2884.53,686.99 2925.7,677.49 2964.5,658C 3007.38,634.892 3036.38,600.225 3051.5,554C 3097.17,553.5 3142.83,553.333 3188.5,553.5C 3174.37,640.737 3130.37,708.237 3056.5,756C 3001.33,789.797 2941.33,808.131 2876.5,811C 2806.78,815.992 2739.11,806.326 2673.5,782C 2553.18,733.196 2477.68,645.696 2447,519.5C 2431.97,444.424 2434.97,370.09 2456,296.5C 2496.57,178.266 2576.07,99.0995 2694.5,59C 2731.8,47.5065 2769.8,40.6732 2808.5,38.5 Z M 2820.5,162.5 C 2867.14,160.061 2911.14,169.561 2952.5,191C 3011.77,225.996 3043.11,278.162 3046.5,347.5C 2894.5,347.833 2742.5,347.5 2590.5,346.5C 2611.67,266.509 2660.34,210.676 2736.5,179C 2763.86,169.5 2791.86,164 2820.5,162.5 Z"/></g>
<g><path style="opacity:0.992" fill="#1c1d1a" d="M 3663.5,38.5 C 3747.36,33.7695 3826.36,50.9362 3900.5,90C 3984.44,138.309 4040.94,208.809 4070,301.5C 4091.21,381.99 4091.88,462.657 4072,543.5C 4038.09,655.476 3967.26,734.309 3859.5,780C 3777.12,811.696 3692.45,820.029 3605.5,805C 3516.59,789.807 3441.43,749.64 3380,684.5C 3316.83,610.518 3286.67,524.518 3289.5,426.5C 3287.77,358.444 3302.27,294.111 3333,233.5C 3379.33,150.716 3447.49,93.8828 3537.5,63C 3578.53,49.1101 3620.53,40.9434 3663.5,38.5 Z M 3676.5,162.5 C 3754.68,160.154 3820.85,186.82 3875,242.5C 3914.79,287.787 3936.12,340.787 3939,401.5C 3942.87,449.403 3936.2,495.736 3919,540.5C 3878.72,626.782 3810.89,674.949 3715.5,685C 3647.93,691.027 3586.27,675.027 3530.5,637C 3470.85,589.885 3439.02,528.051 3435,451.5C 3431.2,404.061 3437.53,358.061 3454,313.5C 3488.63,236.549 3547.13,188.382 3629.5,169C 3645.17,165.763 3660.84,163.596 3676.5,162.5 Z"/></g>
<g><path style="opacity:0.992" fill="#1c1d1a" d="M 26.5,53.5 C 78.405,53.1693 130.238,53.5026 182,54.5C 257.333,243.167 332.667,431.833 408,620.5C 483.853,431.947 559.52,243.28 635,54.5C 686.433,53.1697 737.933,53.1697 789.5,54.5C 619.26,459.058 448.927,863.558 278.5,1268C 227.163,1268.83 175.83,1268.67 124.5,1267.5C 194.725,1108.72 265.225,950.049 336,791.5C 336.667,789.833 336.667,788.167 336,786.5C 232.263,542.365 129.096,298.032 26.5,53.5 Z"/></g>
<g><path style="opacity:0.965" fill="#1c1d1a" d="M 1119.5,1007.5 C 1134.5,1007.5 1149.5,1007.5 1164.5,1007.5C 1164.5,1020.5 1164.5,1033.5 1164.5,1046.5C 1149.5,1046.5 1134.5,1046.5 1119.5,1046.5C 1119.5,1033.5 1119.5,1020.5 1119.5,1007.5 Z"/></g>
<g><path style="opacity:0.943" fill="#1c1d1a" d="M 1459.5,1007.5 C 1474.83,1007.5 1490.17,1007.5 1505.5,1007.5C 1505.5,1020.5 1505.5,1033.5 1505.5,1046.5C 1490.17,1046.5 1474.83,1046.5 1459.5,1046.5C 1459.5,1033.5 1459.5,1020.5 1459.5,1007.5 Z"/></g>
<g><path style="opacity:0.943" fill="#1c1d1a" d="M 3554.5,1007.5 C 3569.83,1007.5 3585.17,1007.5 3600.5,1007.5C 3600.5,1020.5 3600.5,1033.5 3600.5,1046.5C 3585.17,1046.5 3569.83,1046.5 3554.5,1046.5C 3554.5,1033.5 3554.5,1020.5 3554.5,1007.5 Z"/></g>
<g><path style="opacity:0.97" fill="#1c1d1a" d="M 1975.5,1009.5 C 1987.83,1009.5 2000.17,1009.5 2012.5,1009.5C 2012.5,1095.83 2012.5,1182.17 2012.5,1268.5C 2000.17,1268.5 1987.83,1268.5 1975.5,1268.5C 1975.5,1182.17 1975.5,1095.83 1975.5,1009.5 Z"/></g>
<g><path style="opacity:0.965" fill="#1c1d1a" d="M 2952.5,1009.5 C 2964.83,1009.5 2977.17,1009.5 2989.5,1009.5C 2989.33,1060.83 2989.5,1112.17 2990,1163.5C 3017.17,1137 3044.33,1110.5 3071.5,1084C 3088.83,1083.33 3106.17,1083.33 3123.5,1084C 3094.83,1111.33 3066.17,1138.67 3037.5,1166C 3068.27,1200.19 3099.27,1234.19 3130.5,1268C 3114.83,1268.67 3099.17,1268.67 3083.5,1268C 3052.33,1234.17 3021.17,1200.33 2990,1166.5C 2989.5,1200.5 2989.33,1234.5 2989.5,1268.5C 2977.17,1268.5 2964.83,1268.5 2952.5,1268.5C 2952.5,1182.17 2952.5,1095.83 2952.5,1009.5 Z"/></g>
<g><path style="opacity:0.974" fill="#1c1d1a" d="M 830.5,1027.5 C 871.851,1027.08 913.185,1027.58 954.5,1029C 1024.18,1037.35 1059.52,1076.69 1060.5,1147C 1058.29,1220.39 1020.63,1260.72 947.5,1268C 908.501,1268.5 869.501,1268.67 830.5,1268.5C 830.5,1188.17 830.5,1107.83 830.5,1027.5 Z M 867.5,1061.5 C 893.169,1061.33 918.835,1061.5 944.5,1062C 995.94,1067.27 1022.27,1095.77 1023.5,1147.5C 1022.46,1197.36 997.462,1226.19 948.5,1234C 921.522,1235.37 894.522,1235.87 867.5,1235.5C 867.5,1177.5 867.5,1119.5 867.5,1061.5 Z"/></g>
<g><path style="opacity:0.972" fill="#1c1d1a" d="M 2186.5,1027.5 C 2199.08,1027.18 2211.58,1027.51 2224,1028.5C 2260.5,1096.17 2297,1163.83 2333.5,1231.5C 2370.42,1163.99 2407.09,1096.33 2443.5,1028.5C 2456.15,1027.5 2468.82,1027.17 2481.5,1027.5C 2481.5,1107.83 2481.5,1188.17 2481.5,1268.5C 2469.17,1268.5 2456.83,1268.5 2444.5,1268.5C 2444.67,1213.5 2444.5,1158.5 2444,1103.5C 2414,1158.17 2384,1212.83 2354,1267.5C 2340.56,1268.82 2327.06,1268.82 2313.5,1267.5C 2283.67,1213.17 2253.83,1158.83 2224,1104.5C 2223.5,1159.17 2223.33,1213.83 2223.5,1268.5C 2211.17,1268.5 2198.83,1268.5 2186.5,1268.5C 2186.5,1188.17 2186.5,1107.83 2186.5,1027.5 Z"/></g>
<g><path style="opacity:0.97" fill="#1c1d1a" d="M 1597.5,1034.5 C 1609.83,1034.5 1622.17,1034.5 1634.5,1034.5C 1634.5,1050.83 1634.5,1067.17 1634.5,1083.5C 1648.5,1083.5 1662.5,1083.5 1676.5,1083.5C 1676.5,1094.17 1676.5,1104.83 1676.5,1115.5C 1662.5,1115.5 1648.5,1115.5 1634.5,1115.5C 1634.5,1166.5 1634.5,1217.5 1634.5,1268.5C 1622.17,1268.5 1609.83,1268.5 1597.5,1268.5C 1597.5,1217.5 1597.5,1166.5 1597.5,1115.5C 1583.5,1115.5 1569.5,1115.5 1555.5,1115.5C 1555.5,1104.83 1555.5,1094.17 1555.5,1083.5C 1569.5,1083.5 1583.5,1083.5 1597.5,1083.5C 1597.5,1067.17 1597.5,1050.83 1597.5,1034.5 Z"/></g>
<g><path style="opacity:0.97" fill="#1c1d1a" d="M 3426.5,1034.5 C 3438.83,1034.5 3451.17,1034.5 3463.5,1034.5C 3463.5,1050.83 3463.5,1067.17 3463.5,1083.5C 3477.5,1083.5 3491.5,1083.5 3505.5,1083.5C 3505.5,1094.17 3505.5,1104.83 3505.5,1115.5C 3491.5,1115.5 3477.5,1115.5 3463.5,1115.5C 3463.5,1166.5 3463.5,1217.5 3463.5,1268.5C 3451.17,1268.5 3438.83,1268.5 3426.5,1268.5C 3426.5,1217.5 3426.5,1166.5 3426.5,1115.5C 3412.5,1115.5 3398.5,1115.5 3384.5,1115.5C 3384.5,1104.83 3384.5,1094.17 3384.5,1083.5C 3398.5,1083.5 3412.5,1083.5 3426.5,1083.5C 3426.5,1067.17 3426.5,1050.83 3426.5,1034.5 Z"/></g>
<g><path style="opacity:0.966" fill="#1c1d1a" d="M 1395.5,1324.5 C 1383.17,1324.5 1370.83,1324.5 1358.5,1324.5C 1356.06,1312.23 1348.73,1304.73 1336.5,1302C 1332.56,1301.01 1328.56,1300.34 1324.5,1300C 1302.83,1299.67 1281.17,1299.33 1259.5,1299C 1227.43,1295.34 1216.93,1278.5 1228,1248.5C 1239.04,1238.15 1252.21,1233.32 1267.5,1234C 1234.84,1220.54 1218.17,1196.04 1217.5,1160.5C 1218.79,1121.05 1238.13,1095.22 1275.5,1083C 1293.18,1078.36 1310.84,1078.36 1328.5,1083C 1355.83,1083.5 1383.16,1083.67 1410.5,1083.5C 1410.5,1094.83 1410.5,1106.17 1410.5,1117.5C 1403.79,1117.64 1397.12,1117.14 1390.5,1116C 1380.68,1113.5 1371.02,1110.83 1361.5,1108C 1383.66,1126.42 1391.83,1149.92 1386,1178.5C 1377.01,1214.15 1354.18,1234.31 1317.5,1239C 1305.13,1239.59 1292.8,1240.59 1280.5,1242C 1273.48,1242.56 1267.32,1245.06 1262,1249.5C 1258.53,1258.4 1261.37,1264.23 1270.5,1267C 1294.52,1267.11 1318.52,1267.77 1342.5,1269C 1362.88,1270.6 1378.71,1279.76 1390,1296.5C 1394.21,1305.36 1396.04,1314.7 1395.5,1324.5 Z M 1293.5,1111.5 C 1329.07,1109.25 1348.4,1125.75 1351.5,1161C 1347.28,1195.88 1327.61,1211.54 1292.5,1208C 1262.78,1199.77 1250.28,1180.27 1255,1149.5C 1259.75,1128.58 1272.59,1115.91 1293.5,1111.5 Z"/></g>
<g><path style="opacity:0.962" fill="#1c1d1a" d="M 1794.5,1079.5 C 1834.49,1075.22 1859.99,1092.22 1871,1130.5C 1871.5,1114.84 1871.67,1099.17 1871.5,1083.5C 1883.83,1083.5 1896.17,1083.5 1908.5,1083.5C 1908.5,1145.17 1908.5,1206.83 1908.5,1268.5C 1897.15,1268.83 1885.81,1268.5 1874.5,1267.5C 1872.14,1249.94 1870.98,1232.27 1871,1214.5C 1855.19,1265.32 1821.69,1282.82 1770.5,1267C 1737.61,1251.1 1719.11,1224.93 1715,1188.5C 1710.95,1151.61 1722.79,1121.11 1750.5,1097C 1763.73,1087.32 1778.39,1081.49 1794.5,1079.5 Z M 1803.5,1111.5 C 1847.38,1110.54 1870.04,1132.04 1871.5,1176C 1867.87,1224.97 1841.87,1245.64 1793.5,1238C 1771.83,1230.21 1758.33,1215.04 1753,1192.5C 1748.16,1168.21 1753.49,1146.54 1769,1127.5C 1778.87,1118.48 1790.37,1113.14 1803.5,1111.5 Z"/></g>
<g><path style="opacity:0.963" fill="#1c1d1a" d="M 2621.5,1079.5 C 2661.01,1075.23 2686.51,1091.9 2698,1129.5C 2698.5,1114.17 2698.67,1098.84 2698.5,1083.5C 2710.83,1083.5 2723.17,1083.5 2735.5,1083.5C 2735.5,1145.17 2735.5,1206.83 2735.5,1268.5C 2724.17,1268.5 2712.83,1268.5 2701.5,1268.5C 2699.31,1250.91 2698.14,1233.25 2698,1215.5C 2683.48,1263.01 2651.98,1280.85 2603.5,1269C 2571.21,1257.04 2551.38,1234.21 2544,1200.5C 2536.67,1164.76 2544.67,1133.09 2568,1105.5C 2582.94,1090.78 2600.78,1082.11 2621.5,1079.5 Z M 2630.5,1111.5 C 2674.39,1110.56 2697.06,1132.06 2698.5,1176C 2698.81,1199.37 2689.81,1218.04 2671.5,1232C 2649.27,1243.65 2627.27,1243.31 2605.5,1231C 2582.77,1212.83 2574.27,1189.33 2580,1160.5C 2585.96,1132.7 2602.79,1116.37 2630.5,1111.5 Z"/></g>
<g><path style="opacity:0.984" fill="#1c1d1a" d="M 2889.5,1079.5 C 2892.5,1079.5 2895.5,1079.5 2898.5,1079.5C 2898.67,1091.5 2898.5,1103.5 2898,1115.5C 2867.23,1118.24 2846.57,1134.24 2836,1163.5C 2835.5,1198.5 2835.33,1233.5 2835.5,1268.5C 2823.5,1268.5 2811.5,1268.5 2799.5,1268.5C 2799.5,1206.83 2799.5,1145.17 2799.5,1083.5C 2811.5,1083.5 2823.5,1083.5 2835.5,1083.5C 2835.33,1099.84 2835.5,1116.17 2836,1132.5C 2841.68,1111.94 2853.51,1096.11 2871.5,1085C 2877.43,1082.52 2883.43,1080.69 2889.5,1079.5 Z"/></g>
<g><path style="opacity:0.968" fill="#1c1d1a" d="M 3244.5,1079.5 C 3267.09,1077.54 3288.42,1081.71 3308.5,1092C 3330.88,1107.91 3343.05,1129.75 3345,1157.5C 3345.5,1166.49 3345.67,1175.49 3345.5,1184.5C 3294.83,1184.5 3244.17,1184.5 3193.5,1184.5C 3198.08,1215.58 3215.75,1234.08 3246.5,1240C 3267.52,1243.38 3285.68,1237.88 3301,1223.5C 3304.48,1218.7 3307.32,1213.54 3309.5,1208C 3321.16,1207.5 3332.83,1207.33 3344.5,1207.5C 3336.93,1242.9 3315.26,1264.07 3279.5,1271C 3247.97,1276.63 3218.97,1270.63 3192.5,1253C 3171.11,1236.06 3159.28,1213.9 3157,1186.5C 3153.22,1138.69 3173.06,1105.19 3216.5,1086C 3225.75,1082.85 3235.08,1080.69 3244.5,1079.5 Z M 3244.5,1111.5 C 3264.06,1108.75 3281.23,1113.75 3296,1126.5C 3303.04,1135.08 3307.21,1144.92 3308.5,1156C 3270.83,1156.83 3233.16,1156.67 3195.5,1155.5C 3203.09,1130.9 3219.42,1116.24 3244.5,1111.5 Z"/></g>
<g><path style="opacity:0.967" fill="#1c1d1a" d="M 3760.5,1079.5 C 3778.11,1077.9 3794.78,1081.06 3810.5,1089C 3827.23,1099.95 3836.73,1115.45 3839,1135.5C 3839.5,1179.83 3839.67,1224.17 3839.5,1268.5C 3827.17,1268.5 3814.83,1268.5 3802.5,1268.5C 3802.97,1225.46 3802.47,1182.46 3801,1139.5C 3794.54,1120.58 3781.2,1111.92 3761,1113.5C 3733.34,1114.49 3713.67,1127.49 3702,1152.5C 3700.52,1191.11 3700.02,1229.77 3700.5,1268.5C 3688.17,1268.5 3675.83,1268.5 3663.5,1268.5C 3663.5,1206.83 3663.5,1145.17 3663.5,1083.5C 3675.83,1083.5 3688.17,1083.5 3700.5,1083.5C 3700.33,1098.84 3700.5,1114.17 3701,1129.5C 3711.32,1101.34 3731.15,1084.67 3760.5,1079.5 Z"/></g>
<g><path style="opacity:0.966" fill="#1c1d1a" d="M 4072.5,1324.5 C 4059.83,1324.5 4047.17,1324.5 4034.5,1324.5C 4032.07,1312.24 4024.74,1304.74 4012.5,1302C 4008.56,1301.01 4004.56,1300.34 4000.5,1300C 3978.83,1299.67 3957.17,1299.33 3935.5,1299C 3903.44,1295.35 3892.94,1278.52 3904,1248.5C 3915.34,1237.95 3928.84,1233.11 3944.5,1234C 3911.1,1221.07 3894.1,1196.57 3893.5,1160.5C 3894.8,1121.05 3914.13,1095.21 3951.5,1083C 3969.18,1078.36 3986.84,1078.36 4004.5,1083C 4031.83,1083.5 4059.16,1083.67 4086.5,1083.5C 4086.5,1094.83 4086.5,1106.17 4086.5,1117.5C 4079.79,1117.64 4073.12,1117.14 4066.5,1116C 4057.42,1113.63 4048.42,1111.3 4039.5,1109C 4060.2,1127.78 4067.7,1150.94 4062,1178.5C 4053.01,1214.15 4030.18,1234.31 3993.5,1239C 3981.13,1239.59 3968.8,1240.59 3956.5,1242C 3950.04,1242.6 3944.2,1244.76 3939,1248.5C 3934.15,1257.63 3936.65,1263.8 3946.5,1267C 3970.52,1267.11 3994.52,1267.77 4018.5,1269C 4052,1272.67 4070,1291.17 4072.5,1324.5 Z M 3969.5,1111.5 C 4004.79,1109.14 4024.13,1125.47 4027.5,1160.5C 4023.49,1195.67 4003.82,1211.5 3968.5,1208C 3938.78,1199.77 3926.28,1180.27 3931,1149.5C 3935.78,1128.55 3948.62,1115.88 3969.5,1111.5 Z"/></g>
<g><path style="opacity:0.959" fill="#1c1d1a" d="M 1123.5,1083.5 C 1135.83,1083.5 1148.17,1083.5 1160.5,1083.5C 1160.5,1145.17 1160.5,1206.83 1160.5,1268.5C 1148.17,1268.5 1135.83,1268.5 1123.5,1268.5C 1123.5,1206.83 1123.5,1145.17 1123.5,1083.5 Z"/></g>
<g><path style="opacity:0.987" fill="#1c1d1a" d="M 1464.5,1083.5 C 1476.5,1083.5 1488.5,1083.5 1500.5,1083.5C 1500.5,1145.17 1500.5,1206.83 1500.5,1268.5C 1488.5,1268.5 1476.5,1268.5 1464.5,1268.5C 1464.5,1206.83 1464.5,1145.17 1464.5,1083.5 Z"/></g>
<g><path style="opacity:0.987" fill="#1c1d1a" d="M 3559.5,1083.5 C 3571.5,1083.5 3583.5,1083.5 3595.5,1083.5C 3595.5,1145.17 3595.5,1206.83 3595.5,1268.5C 3583.5,1268.5 3571.5,1268.5 3559.5,1268.5C 3559.5,1206.83 3559.5,1145.17 3559.5,1083.5 Z"/></g>
<g><path style="opacity:1" fill="#fe3837" d="M 1358.5,1324.5 C 1370.83,1324.5 1383.17,1324.5 1395.5,1324.5C 2275.17,1324.5 3154.83,1324.5 4034.5,1324.5C 4047.17,1324.5 4059.83,1324.5 4072.5,1324.5C 4074.49,1343.47 4075.15,1362.8 4074.5,1382.5C 2990.5,1382.5 1906.5,1382.5 822.5,1382.5C 822.5,1363.17 822.5,1343.83 822.5,1324.5C 1001.17,1324.5 1179.83,1324.5 1358.5,1324.5 Z"/></g>
</svg>
