<?xml version="1.0" encoding="UTF-8"?>
<!DOCTYPE svg PUBLIC "-//W3C//DTD SVG 1.1//EN" "http://www.w3.org/Graphics/SVG/1.1/DTD/svg11.dtd">
<svg xmlns="http://www.w3.org/2000/svg" version="1.1" width="4114px" height="1383px" style="shape-rendering:geometricPrecision; text-rendering:geometricPrecision; image-rendering:optimizeQuality; fill-rule:evenodd; clip-rule:evenodd" xmlns:xlink="http://www.w3.org/1999/xlink">
<g><path style="opacity:0.992" fill="#fefffe" d="M 1167.5,38.5 C 1327.13,29.6671 1424.63,103 1460,258.5C 1460.5,190.167 1460.67,121.834 1460.5,53.5C 1508.83,53.5 1557.17,53.5 1605.5,53.5C 1605.5,300.833 1605.5,548.167 1605.5,795.5C 1561.17,795.5 1516.83,795.5 1472.5,795.5C 1462.65,718.823 1458.48,641.823 1460,564.5C 1446.89,617.879 1424.56,666.879 1393,711.5C 1343.63,774.105 1278.79,806.939 1198.5,810C 1074.54,814.265 976.042,766.765 903,667.5C 857.643,601.758 833.643,528.758 831,448.5C 826.081,369.423 841.748,294.757 878,224.5C 941.586,111.827 1038.09,49.8265 1167.5,38.5 Z M 1194.5,164.5 C 1238.54,161.504 1281.2,167.67 1322.5,183C 1386.87,212.38 1428.7,261.214 1448,329.5C 1464.98,393.271 1464.65,456.938 1447,520.5C 1416.64,616.523 1351.48,670.69 1251.5,683C 1182.99,691.459 1121.32,675.125 1066.5,634C 1012.43,587.366 982.599,528.199 977,456.5C 970.662,394.188 981.662,335.188 1010,279.5C 1050.76,208.347 1112.26,170.014 1194.5,164.5 Z"/></g>
<g><path style="opacity:0.991" fill="#fefffe" d="M 2026.5,38.5 C 2067.41,36.4695 2107.75,40.3028 2147.5,50C 2246.21,79.7315 2302.05,145.898 2315,248.5C 2316.21,260.143 2317.05,271.81 2317.5,283.5C 2274.83,283.5 2232.17,283.5 2189.5,283.5C 2186.66,257.146 2178.16,232.813 2164,210.5C 2145.54,185.338 2120.7,170.505 2089.5,166C 2058.38,160.953 2027.38,161.62 1996.5,168C 1970.6,173.191 1949.1,185.691 1932,205.5C 1915.97,229.01 1912.3,254.344 1921,281.5C 1925.94,292.435 1933.1,301.601 1942.5,309C 1959.84,322.172 1978.84,332.505 1999.5,340C 2054.9,358.799 2110.23,377.799 2165.5,397C 2198.57,407.684 2229.91,422.018 2259.5,440C 2322.21,480.603 2349.71,538.437 2342,613.5C 2336.37,682.292 2304.21,734.458 2245.5,770C 2206.34,791.961 2164.34,804.961 2119.5,809C 2057.74,815.993 1996.74,811.66 1936.5,796C 1871.74,777.911 1819.91,741.744 1781,687.5C 1756.55,651.647 1743.38,611.98 1741.5,568.5C 1741.92,563.501 1742.25,558.501 1742.5,553.5C 1787.17,553.5 1831.83,553.5 1876.5,553.5C 1883.14,599.945 1906.14,635.779 1945.5,661C 1974.39,676.974 2005.39,685.641 2038.5,687C 2069.64,689.405 2100.3,686.739 2130.5,679C 2173.54,665.915 2195.87,636.915 2197.5,592C 2198.12,565.249 2187.79,543.915 2166.5,528C 2150.68,517.591 2133.68,509.591 2115.5,504C 2080.95,493.595 2046.28,483.595 2011.5,474C 1963,460.578 1916.67,441.911 1872.5,418C 1782.37,365.678 1752.2,289.178 1782,188.5C 1801.07,140.428 1833.24,103.928 1878.5,79C 1924.94,54.5579 1974.28,41.0579 2026.5,38.5 Z"/></g>
<g><path style="opacity:0.992" fill="#fefffe" d="M 2808.5,38.5 C 2871.88,34.963 2933.54,43.463 2993.5,64C 3076.06,96.8961 3133.56,154.729 3166,237.5C 3180.88,277.875 3189.88,319.542 3193,362.5C 3195.68,394.145 3196.01,425.812 3194,457.5C 2990.57,458.499 2787.07,458.833 2583.5,458.5C 2590.54,527.424 2619.88,584.591 2671.5,630C 2721.21,668.348 2777.71,687.181 2841,686.5C 2894.99,687.718 2944.16,673.218 2988.5,643C 3019.48,620.214 3040.48,590.381 3051.5,553.5C 3097.5,553.5 3143.5,553.5 3189.5,553.5C 3170.67,657.373 3113.67,731.873 3018.5,777C 2977.5,795.667 2934.5,806.667 2889.5,810C 2810.03,817.694 2733.36,806.361 2659.5,776C 2549.21,726.707 2479.04,643.54 2449,526.5C 2437.34,470.196 2435.34,413.53 2443,356.5C 2464.38,225.796 2534.55,131.963 2653.5,75C 2703.08,53.5201 2754.75,41.3535 2808.5,38.5 Z M 2820.5,162.5 C 2872.29,159.615 2920.29,171.448 2964.5,198C 3005.58,224.784 3031.41,262.284 3042,310.5C 3044.57,322.732 3046.4,335.065 3047.5,347.5C 2895.5,347.5 2743.5,347.5 2591.5,347.5C 2612.37,264.589 2662.71,207.755 2742.5,177C 2768.03,168.858 2794.03,164.025 2820.5,162.5 Z"/></g>
<g><path style="opacity:0.992" fill="#fefffe" d="M 3663.5,38.5 C 3744.45,34.0557 3821.11,49.889 3893.5,86C 3995.58,142.135 4057.75,227.635 4080,342.5C 4087.86,394.068 4088.53,445.735 4082,497.5C 4064.74,606.272 4010.24,690.438 3918.5,750C 3848.13,792.178 3771.8,813.011 3689.5,812.5C 3596.91,812.781 3512.57,786.948 3436.5,735C 3351.16,670.539 3303,584.706 3292,477.5C 3286.2,420.454 3290.2,364.12 3304,308.5C 3339.87,189.622 3416.04,108.456 3532.5,65C 3575.05,49.9239 3618.72,41.0906 3663.5,38.5 Z M 3676.5,162.5 C 3756.93,160.014 3824.43,188.014 3879,246.5C 3921.64,298.593 3942.14,358.593 3940.5,426.5C 3942.01,495.145 3920.85,555.478 3877,607.5C 3833.11,653.525 3779.28,679.359 3715.5,685C 3642.52,691.431 3577.19,672.431 3519.5,628C 3468.64,582.777 3440.81,525.944 3436,457.5C 3431.83,412.545 3436.5,368.545 3450,325.5C 3481.54,243.302 3540.04,191.468 3625.5,170C 3642.47,166.314 3659.47,163.814 3676.5,162.5 Z"/></g>
<g><path style="opacity:0.992" fill="#fefffe" d="M 26.5,53.5 C 78.5043,53.1667 130.504,53.5001 182.5,54.5C 257.741,243.309 333.241,431.976 409,620.5C 484.598,431.873 560.098,243.207 635.5,54.5C 686.829,53.5001 738.162,53.1667 789.5,53.5C 619.773,457.838 449.94,862.171 280,1266.5C 254.215,1267.83 228.215,1268.5 202,1268.5C 176.167,1268.33 150.333,1268.17 124.5,1268C 195.5,1108.33 266.5,948.667 337.5,789C 233.692,543.885 130.025,298.718 26.5,53.5 Z"/></g>
<g><path style="opacity:0.964" fill="#fefffe" d="M 1119.5,1007.5 C 1134.5,1007.5 1149.5,1007.5 1164.5,1007.5C 1164.5,1020.5 1164.5,1033.5 1164.5,1046.5C 1149.5,1046.5 1134.5,1046.5 1119.5,1046.5C 1119.5,1033.5 1119.5,1020.5 1119.5,1007.5 Z"/></g>
<g><path style="opacity:0.964" fill="#fefffe" d="M 1460.5,1007.5 C 1475.5,1007.5 1490.5,1007.5 1505.5,1007.5C 1505.5,1020.5 1505.5,1033.5 1505.5,1046.5C 1490.5,1046.5 1475.5,1046.5 1460.5,1046.5C 1460.5,1033.5 1460.5,1020.5 1460.5,1007.5 Z"/></g>
<g><path style="opacity:0.964" fill="#fefffe" d="M 3555.5,1007.5 C 3570.5,1007.5 3585.5,1007.5 3600.5,1007.5C 3600.5,1020.5 3600.5,1033.5 3600.5,1046.5C 3585.5,1046.5 3570.5,1046.5 3555.5,1046.5C 3555.5,1033.5 3555.5,1020.5 3555.5,1007.5 Z"/></g>
<g><path style="opacity:0.997" fill="#fefffe" d="M 1976.5,1009.5 C 1988.5,1009.5 2000.5,1009.5 2012.5,1009.5C 2012.5,1095.83 2012.5,1182.17 2012.5,1268.5C 2000.5,1268.5 1988.5,1268.5 1976.5,1268.5C 1976.5,1182.17 1976.5,1095.83 1976.5,1009.5 Z"/></g>
<g><path style="opacity:0.965" fill="#fefffe" d="M 2952.5,1009.5 C 2964.83,1009.5 2977.17,1009.5 2989.5,1009.5C 2989.33,1061.17 2989.5,1112.83 2990,1164.5C 3017.47,1138.03 3044.64,1111.19 3071.5,1084C 3088.83,1083.33 3106.17,1083.33 3123.5,1084C 3094.83,1111.33 3066.17,1138.67 3037.5,1166C 3068.68,1199.68 3099.68,1233.52 3130.5,1267.5C 3114.84,1268.67 3099.18,1268.83 3083.5,1268C 3051.96,1234.13 3020.8,1199.97 2990,1165.5C 2989.5,1199.83 2989.33,1234.17 2989.5,1268.5C 2977.17,1268.5 2964.83,1268.5 2952.5,1268.5C 2952.5,1182.17 2952.5,1095.83 2952.5,1009.5 Z"/></g>
<g><path style="opacity:0.972" fill="#fefffe" d="M 830.5,1027.5 C 871.852,1027.08 913.186,1027.58 954.5,1029C 1024.74,1036.91 1060.4,1076.24 1061.5,1147C 1058.89,1220.61 1020.89,1260.94 947.5,1268C 908.501,1268.5 869.501,1268.67 830.5,1268.5C 830.5,1188.17 830.5,1107.83 830.5,1027.5 Z M 867.5,1061.5 C 896.194,1061.08 924.861,1061.58 953.5,1063C 1000.26,1071.6 1023.59,1099.77 1023.5,1147.5C 1023.29,1197.88 998.286,1226.71 948.5,1234C 921.523,1235.38 894.523,1235.88 867.5,1235.5C 867.5,1177.5 867.5,1119.5 867.5,1061.5 Z"/></g>
<g><path style="opacity:0.968" fill="#fefffe" d="M 2186.5,1027.5 C 2199.18,1027.17 2211.85,1027.5 2224.5,1028.5C 2261.25,1096.34 2297.75,1164.34 2334,1232.5C 2370.67,1164.5 2407.33,1096.5 2444,1028.5C 2456.42,1027.51 2468.92,1027.18 2481.5,1027.5C 2481.5,1107.83 2481.5,1188.17 2481.5,1268.5C 2469.17,1268.5 2456.83,1268.5 2444.5,1268.5C 2444.67,1213.83 2444.5,1159.17 2444,1104.5C 2414.17,1158.83 2384.33,1213.17 2354.5,1267.5C 2340.94,1268.82 2327.44,1268.82 2314,1267.5C 2284.33,1213.5 2254.67,1159.5 2225,1105.5C 2224.5,1159.83 2224.33,1214.17 2224.5,1268.5C 2211.83,1268.5 2199.17,1268.5 2186.5,1268.5C 2186.5,1188.17 2186.5,1107.83 2186.5,1027.5 Z"/></g>
<g><path style="opacity:0.97" fill="#fefffe" d="M 1597.5,1034.5 C 1609.83,1034.5 1622.17,1034.5 1634.5,1034.5C 1634.5,1050.83 1634.5,1067.17 1634.5,1083.5C 1648.5,1083.5 1662.5,1083.5 1676.5,1083.5C 1676.5,1094.17 1676.5,1104.83 1676.5,1115.5C 1662.5,1115.5 1648.5,1115.5 1634.5,1115.5C 1634.5,1166.5 1634.5,1217.5 1634.5,1268.5C 1622.17,1268.5 1609.83,1268.5 1597.5,1268.5C 1597.5,1217.5 1597.5,1166.5 1597.5,1115.5C 1583.5,1115.5 1569.5,1115.5 1555.5,1115.5C 1555.5,1104.83 1555.5,1094.17 1555.5,1083.5C 1569.5,1083.5 1583.5,1083.5 1597.5,1083.5C 1597.5,1067.17 1597.5,1050.83 1597.5,1034.5 Z"/></g>
<g><path style="opacity:0.97" fill="#fefffe" d="M 3426.5,1034.5 C 3438.83,1034.5 3451.17,1034.5 3463.5,1034.5C 3463.5,1050.83 3463.5,1067.17 3463.5,1083.5C 3477.5,1083.5 3491.5,1083.5 3505.5,1083.5C 3505.5,1094.17 3505.5,1104.83 3505.5,1115.5C 3491.5,1115.5 3477.5,1115.5 3463.5,1115.5C 3463.5,1166.5 3463.5,1217.5 3463.5,1268.5C 3451.17,1268.5 3438.83,1268.5 3426.5,1268.5C 3426.5,1217.5 3426.5,1166.5 3426.5,1115.5C 3412.5,1115.5 3398.5,1115.5 3384.5,1115.5C 3384.5,1104.83 3384.5,1094.17 3384.5,1083.5C 3398.5,1083.5 3412.5,1083.5 3426.5,1083.5C 3426.5,1067.17 3426.5,1050.83 3426.5,1034.5 Z"/></g>
<g><path style="opacity:0.967" fill="#fefffe" d="M 1396.5,1328.5 C 1384.17,1328.5 1371.83,1328.5 1359.5,1328.5C 1356.34,1309.53 1345.01,1300.03 1325.5,1300C 1301.47,1299.93 1277.47,1299.26 1253.5,1298C 1229.66,1293.49 1220.16,1279.32 1225,1255.5C 1230.14,1244.82 1238.64,1238.32 1250.5,1236C 1256.46,1235 1262.46,1234.34 1268.5,1234C 1235.23,1220.71 1218.57,1196.04 1218.5,1160C 1219.07,1122.18 1237.07,1096.84 1272.5,1084C 1291.4,1078.46 1310.4,1078.13 1329.5,1083C 1356.5,1083.5 1383.5,1083.67 1410.5,1083.5C 1410.5,1094.83 1410.5,1106.17 1410.5,1117.5C 1403.79,1117.64 1397.12,1117.14 1390.5,1116C 1380.94,1113.7 1371.61,1111.03 1362.5,1108C 1388.48,1132.19 1394.98,1161.02 1382,1194.5C 1368.89,1220.58 1347.73,1235.41 1318.5,1239C 1301.6,1239.24 1284.93,1241.24 1268.5,1245C 1261.02,1249.11 1259.18,1254.94 1263,1262.5C 1264.95,1264.89 1267.45,1266.39 1270.5,1267C 1291.17,1267.33 1311.83,1267.67 1332.5,1268C 1349.79,1268.23 1365.46,1273.23 1379.5,1283C 1392.34,1295.35 1398.01,1310.52 1396.5,1328.5 Z M 1294.5,1111.5 C 1333.95,1110.12 1352.78,1129.12 1351,1168.5C 1343.91,1198.82 1324.75,1211.99 1293.5,1208C 1271.55,1203.72 1258.72,1190.55 1255,1168.5C 1252.37,1138.33 1265.53,1119.33 1294.5,1111.5 Z"/></g>
<g><path style="opacity:0.965" fill="#fefffe" d="M 1794.5,1079.5 C 1833.76,1074.86 1859.26,1091.19 1871,1128.5C 1871.5,1113.5 1871.67,1098.5 1871.5,1083.5C 1883.83,1083.5 1896.17,1083.5 1908.5,1083.5C 1908.5,1145.17 1908.5,1206.83 1908.5,1268.5C 1897.17,1268.5 1885.83,1268.5 1874.5,1268.5C 1872.81,1251.21 1871.65,1233.87 1871,1216.5C 1857.04,1261.42 1826.87,1279.25 1780.5,1270C 1747.32,1259.48 1726.48,1237.32 1718,1203.5C 1710.98,1173.38 1715.31,1145.05 1731,1118.5C 1746.52,1096.17 1767.68,1083.17 1794.5,1079.5 Z M 1803.5,1111.5 C 1838.92,1108.79 1861.09,1124.46 1870,1158.5C 1874.78,1181.49 1870.45,1202.49 1857,1221.5C 1837.25,1240.28 1814.41,1245.11 1788.5,1236C 1763.76,1223.88 1751.42,1203.88 1751.5,1176C 1751.74,1159.62 1756.57,1144.79 1766,1131.5C 1775.98,1119.93 1788.48,1113.26 1803.5,1111.5 Z"/></g>
<g><path style="opacity:0.966" fill="#fefffe" d="M 2621.5,1079.5 C 2660.79,1074.87 2686.29,1091.2 2698,1128.5C 2698.5,1113.5 2698.67,1098.5 2698.5,1083.5C 2710.83,1083.5 2723.17,1083.5 2735.5,1083.5C 2735.5,1145.17 2735.5,1206.83 2735.5,1268.5C 2724.17,1268.5 2712.83,1268.5 2701.5,1268.5C 2700.08,1251.19 2698.92,1233.86 2698,1216.5C 2683.33,1262.93 2652.16,1280.43 2604.5,1269C 2568.52,1255.67 2548.02,1229.83 2543,1191.5C 2537.89,1152.8 2550.06,1120.97 2579.5,1096C 2592.33,1087.23 2606.33,1081.73 2621.5,1079.5 Z M 2630.5,1111.5 C 2665.45,1108.7 2687.62,1124.03 2697,1157.5C 2701.92,1180.31 2697.92,1201.31 2685,1220.5C 2665.23,1240.14 2642.06,1245.31 2615.5,1236C 2595.35,1226.5 2583.51,1210.66 2580,1188.5C 2576.56,1167.1 2581.23,1147.76 2594,1130.5C 2603.82,1119.51 2615.99,1113.17 2630.5,1111.5 Z"/></g>
<g><path style="opacity:0.964" fill="#fefffe" d="M 2889.5,1079.5 C 2892.83,1079.5 2896.17,1079.5 2899.5,1079.5C 2899.83,1091.52 2899.5,1103.52 2898.5,1115.5C 2868.05,1118.11 2847.55,1133.78 2837,1162.5C 2836.5,1197.83 2836.33,1233.17 2836.5,1268.5C 2824.17,1268.5 2811.83,1268.5 2799.5,1268.5C 2799.5,1206.83 2799.5,1145.17 2799.5,1083.5C 2811.83,1083.5 2824.17,1083.5 2836.5,1083.5C 2836.33,1099.17 2836.5,1114.84 2837,1130.5C 2844.97,1103.36 2862.47,1086.36 2889.5,1079.5 Z"/></g>
<g><path style="opacity:0.968" fill="#fefffe" d="M 3244.5,1079.5 C 3315.82,1077.32 3349.65,1111.99 3346,1183.5C 3295.57,1184.5 3245.07,1184.83 3194.5,1184.5C 3196.43,1204.22 3205.43,1219.72 3221.5,1231C 3244.68,1243.23 3268.01,1243.56 3291.5,1232C 3300.81,1226.2 3306.81,1218.03 3309.5,1207.5C 3321.17,1207.5 3332.83,1207.5 3344.5,1207.5C 3340.25,1234.59 3325.58,1253.76 3300.5,1265C 3275.18,1273.83 3249.51,1274.83 3223.5,1268C 3174.24,1249.68 3152.41,1214.18 3158,1161.5C 3163.21,1126.2 3182.05,1101.37 3214.5,1087C 3224.36,1083.4 3234.36,1080.9 3244.5,1079.5 Z M 3245.5,1111.5 C 3260.8,1109.66 3275.13,1112.49 3288.5,1120C 3300.77,1129.03 3307.43,1141.19 3308.5,1156.5C 3271.17,1156.5 3233.83,1156.5 3196.5,1156.5C 3203.61,1131.39 3219.94,1116.39 3245.5,1111.5 Z"/></g>
<g><path style="opacity:0.966" fill="#fefffe" d="M 3761.5,1079.5 C 3785.46,1076.88 3806.29,1083.54 3824,1099.5C 3833.84,1111.35 3839.17,1125.01 3840,1140.5C 3840.5,1183.17 3840.67,1225.83 3840.5,1268.5C 3828.17,1268.5 3815.83,1268.5 3803.5,1268.5C 3803.67,1228.17 3803.5,1187.83 3803,1147.5C 3799.47,1123.79 3785.63,1112.46 3761.5,1113.5C 3734.22,1114.22 3714.72,1126.89 3703,1151.5C 3702.33,1153.5 3701.67,1155.5 3701,1157.5C 3700.5,1194.5 3700.33,1231.5 3700.5,1268.5C 3688.17,1268.5 3675.83,1268.5 3663.5,1268.5C 3663.5,1206.83 3663.5,1145.17 3663.5,1083.5C 3675.83,1083.5 3688.17,1083.5 3700.5,1083.5C 3700.33,1099.17 3700.5,1114.84 3701,1130.5C 3711.62,1102.04 3731.78,1085.04 3761.5,1079.5 Z"/></g>
<g><path style="opacity:0.967" fill="#fefffe" d="M 4072.5,1328.5 C 4060.17,1328.5 4047.83,1328.5 4035.5,1328.5C 4032.34,1309.52 4021.01,1300.02 4001.5,1300C 3977.47,1299.93 3953.47,1299.26 3929.5,1298C 3905.66,1293.49 3896.16,1279.32 3901,1255.5C 3905.43,1245.74 3912.93,1239.58 3923.5,1237C 3930.38,1235.18 3937.38,1234.18 3944.5,1234C 3907.05,1217.96 3890.55,1189.46 3895,1148.5C 3901.21,1110.95 3923.05,1088.45 3960.5,1081C 3975.64,1078.59 3990.64,1079.26 4005.5,1083C 4032.5,1083.5 4059.5,1083.67 4086.5,1083.5C 4086.5,1094.83 4086.5,1106.17 4086.5,1117.5C 4079.79,1117.55 4073.13,1117.05 4066.5,1116C 4056.94,1113.7 4047.61,1111.03 4038.5,1108C 4060.96,1127.72 4068.8,1152.22 4062,1181.5C 4054.61,1209.89 4036.78,1228.06 4008.5,1236C 4003.9,1237.32 3999.23,1238.32 3994.5,1239C 3977.6,1239.24 3960.93,1241.24 3944.5,1245C 3937.02,1249.11 3935.18,1254.94 3939,1262.5C 3940.95,1264.89 3943.45,1266.39 3946.5,1267C 3967.17,1267.33 3987.83,1267.67 4008.5,1268C 4025.79,1268.23 4041.46,1273.23 4055.5,1283C 4068.35,1295.36 4074.01,1310.52 4072.5,1328.5 Z M 3970.5,1111.5 C 4009.95,1110.12 4028.78,1129.12 4027,1168.5C 4023.41,1190.09 4010.91,1203.26 3989.5,1208C 3949.97,1211.13 3930.47,1192.96 3931,1153.5C 3934.78,1130.56 3947.94,1116.56 3970.5,1111.5 Z"/></g>
<g><path style="opacity:0.987" fill="#fefffe" d="M 1124.5,1083.5 C 1136.5,1083.5 1148.5,1083.5 1160.5,1083.5C 1160.5,1145.17 1160.5,1206.83 1160.5,1268.5C 1148.5,1268.5 1136.5,1268.5 1124.5,1268.5C 1124.5,1206.83 1124.5,1145.17 1124.5,1083.5 Z"/></g>
<g><path style="opacity:0.961" fill="#fefffe" d="M 1464.5,1083.5 C 1476.83,1083.5 1489.17,1083.5 1501.5,1083.5C 1501.5,1145.17 1501.5,1206.83 1501.5,1268.5C 1489.17,1268.5 1476.83,1268.5 1464.5,1268.5C 1464.5,1206.83 1464.5,1145.17 1464.5,1083.5 Z"/></g>
<g><path style="opacity:0.96" fill="#fefffe" d="M 3559.5,1083.5 C 3571.83,1083.5 3584.17,1083.5 3596.5,1083.5C 3596.5,1145.17 3596.5,1206.83 3596.5,1268.5C 3584.17,1268.5 3571.83,1268.5 3559.5,1268.5C 3559.5,1206.83 3559.5,1145.17 3559.5,1083.5 Z"/></g>
<g><path style="opacity:1" fill="#fe3837" d="M 1359.5,1328.5 C 1371.83,1328.5 1384.17,1328.5 1396.5,1328.5C 2276.17,1328.5 3155.83,1328.5 4035.5,1328.5C 4047.83,1328.5 4060.17,1328.5 4072.5,1328.5C 4074.49,1346.14 4075.15,1364.14 4074.5,1382.5C 2990.5,1382.5 1906.5,1382.5 822.5,1382.5C 822.5,1364.5 822.5,1346.5 822.5,1328.5C 1001.5,1328.5 1180.5,1328.5 1359.5,1328.5 Z"/></g>
</svg>
